<?xml version="1.0" encoding="UTF-8"?>
<svg id="Camada_1" xmlns="http://www.w3.org/2000/svg" version="1.1" viewBox="0 0 65 30">
  <!-- Generator: Adobe Illustrator 29.8.1, SVG Export Plug-In . SVG Version: 2.1.1 Build 2)  -->
  <defs>
    <style>
      .st0 {
        fill: #d8ad56;
      }

      .st1 {
        fill: #fff;
      }
    </style>
  </defs>
  <g>
    <path class="st1" d="M12.4,8.67c.13-.04.2-.17.16-.28-.04-.14-.08-.27-.12-.41-.03-.11-.16-.18-.28-.15-.76.23-1.51.48-2.26.73-.12.05-.18.17-.14.29.05.13.09.27.14.4.04.12.18.18.3.13.34-.12.76.07.86.39.63,1.91,1.26,3.81,1.9,5.72.04.12.02.21-.04.23-.03.01-.07,0-.11-.02-1.36-.96-9.51-4.12-9.69-3.99-.31-.11-.52-.18-.88,0-.37.18-.73.36-1.09.54-.12.06-.17.2-.12.31.06.13.13.25.19.38.06.11.2.15.33.08.34-.17.75-.05.91.27,1.1,2.23,2.19,4.45,3.29,6.68.15.31.02.71-.26.86-.1.05-.14.19-.09.3.06.13.13.25.19.38.05.11.17.15.28.11.61-.31,1.22-.6,1.84-.89h0c.1-.05.14-.18.09-.28-.06-.13-.12-.26-.18-.39-.05-.11-.18-.16-.29-.11-.29.13-.69-.02-.83-.33-.86-1.82-1.73-3.64-2.59-5.45-.06-.13-.06-.22,0-.25.03-.02.08-.01.14,0,.27-.19,9.59,3.86,9.4,4.06.3.17.5.28.84.17.07-.02.14-.05.21-.07.09-.05.13-.16.1-.26-.88-2.78-1.76-5.56-2.64-8.34-.1-.32.12-.72.46-.82h-.02Z"/>
    <path class="st1" d="M45.23,5.57c-3.38-.63-6.36,1.69-6.61,4.8-.25,3.13,1.8,5.85,4.54,6.37,2.74.5,5.65-1.31,6.53-4.32.89-3-1.09-6.23-4.47-6.86h.01ZM44.39,15.92c-1.87.15-3.55-1.75-3.92-4.37-.36-2.62.98-5.02,3.17-5.2,2.18-.19,4.13,1.95,4.17,4.6.05,2.65-1.56,4.82-3.42,4.98h0Z"/>
    <path class="st1" d="M22.44,14.37c-.13.02-.26.04-.4.07-.11.02-.19.14-.17.26.06.33-.17.69-.48.75-.8.15-1.6.32-2.39.5-.11.02-.21-.05-.24-.16-.3-1.28-.6-2.56-.9-3.84-.03-.11.04-.22.15-.25.75-.17,1.49-.33,2.24-.48.05-.01.09-.07.08-.13-.03-.18-.07-.36-.1-.54-.03-.12-.14-.19-.26-.17-.72.14-1.44.3-2.15.46-.12.02-.23-.05-.26-.16-.23-1-.47-1.99-.7-2.99-.03-.11.05-.23.17-.26.6-.14,1.2-.27,1.8-.39.35-.07.76.16.82.5.02.12.14.2.27.18.15-.03.29-.05.44-.08.12-.02.21-.13.19-.25-.08-.43-.15-.87-.23-1.3-.03-.12-.15-.19-.27-.17-2,.36-3.99.81-5.96,1.35-.12.04-.19.16-.16.28.04.14.08.27.11.41.03.12.16.19.29.15.35-.1.75.12.83.45.63,2.4,1.26,4.8,1.89,7.2.09.33-.11.7-.42.78-.11.03-.17.15-.14.27.04.14.08.28.11.41.03.11.14.18.25.16,1.93-.53,3.88-.96,5.84-1.29.11-.02.18-.12.17-.24-.07-.44-.14-.87-.21-1.31-.03-.12-.13-.19-.24-.18h.03Z"/>
    <path class="st1" d="M36.47,10.89s-2.49-2.77-2.89-3.11c-.82-.83-1.12-1.48-.53-2.04.49-.46,1.15-.37,1.95.23.37.27.46.42.87.44.6.03,1.01-.4,1.03-.69,0-.22-.19-.47-.67-.69-.59-.28-1.29-.63-2.37-.65-1.54-.03-2.77,1.11-2.73,2.55.01.62.29,1.24.8,1.74.77.72,2.67,2.77,2.65,2.78.57.63,1.1,1.65,1.06,2.47-.09,1.48-1.15,2.5-2.49,2.48-1-.01-1.8-.4-2.2-1.09.21,0,.42,0,.63-.01,1.16-.03,1.99-.71,2.01-1.71.02-.89-.67-1.82-2.03-1.8-1.31.02-1.94,1.34-1.89,2.25.02.43.02.44-.09.44-.96.05-1.93.12-2.89.21-.11,0-.2-.08-.21-.19-.28-2.83-.57-5.66-.85-8.49-.05-.46-.52-.83-1.02-.77-.54.06-1.09.13-1.63.21-.13.03-.21.13-.19.25.02.14.04.28.06.42.02.12.14.21.27.19.36-.05.72.22.76.55.31,2.46.63,4.92.94,7.38.04.34-.2.68-.51.72-.11.02-.19.13-.17.25.02.14.04.28.06.42.02.12.11.2.22.19,1.83-.25,3.67-.42,5.52-.5.75,1.36,1.95,2.11,3.35,2.13,2.07.02,3.94-1.55,4.14-3.68.08-.94-.34-2.18-.96-2.9v.02ZM30.61,14.08c-.02-.46.13-1.17.79-1.18.35,0,.74.22.74.73,0,.48-.34.78-.92.8-.15,0-.31,0-.46.01q-.14,0-.15-.36Z"/>
    <path class="st1" d="M62.62,12.63c.12.06.26.02.32-.09.06-.13.13-.26.19-.38.05-.11,0-.24-.11-.3-.72-.35-1.45-.69-2.18-1.02-.12-.05-.25,0-.3.11-.06.13-.11.26-.17.39-.05.11,0,.25.13.3.33.15.51.57.37.88-.84,1.83-1.68,3.65-2.52,5.48-.05.11-.13.17-.19.14-.03-.01-.05-.04-.07-.08-.37-1.64-4.15-9.5-4.36-9.53-.15-.29-.25-.48-.63-.6-.38-.12-.77-.23-1.15-.35-.13-.04-.26.03-.29.15-.04.14-.08.27-.12.41-.03.12.04.24.18.28.36.11.57.47.47.81-.72,2.38-1.44,4.75-2.15,7.13-.1.33-.46.54-.77.45-.11-.03-.23.04-.26.16-.04.14-.08.27-.12.41-.03.12.02.23.13.27.64.19,1.29.39,1.93.6h0c.11.03.22-.04.26-.15.04-.14.09-.27.13-.4.04-.12-.02-.24-.13-.28-.3-.1-.48-.48-.38-.8.61-1.92,1.22-3.84,1.82-5.76.04-.14.1-.2.17-.18.03.01.07.05.1.1.3.04,4.35,9.36,4.1,9.38.11.33.17.55.5.7.07.03.13.06.2.09.1.02.2-.03.25-.12,1.25-2.63,2.5-5.27,3.75-7.9.15-.31.58-.44.91-.28v-.02Z"/>
  </g>
  <g>
    <path class="st0" d="M11.96,25.5c-.06,0-.1-.05-.1-.11v-.14c0-.06.05-.11.11-.11.08,0,.16-.07.17-.15v-2.44c-.01-.08-.09-.14-.17-.14-.06,0-.11-.05-.11-.11v-.14c0-.06.04-.1.1-.11h1.33c.48,0,.87.39.87.87,0,.22-.08.44-.24.6l-.03.04.04.02c.32.18.51.52.51.88,0,.56-.46,1.01-1.01,1.01h-1.47v.03ZM12.76,25.15h.39c.36,0,.66-.3.66-.67s-.3-.66-.66-.67h-.39v1.33h0ZM12.76,22.42v1.06h.24c.29,0,.53-.24.53-.53s-.23-.52-.52-.53c0,0-.25,0-.25,0Z"/>
    <path class="st0" d="M41.31,11.66c.12,1.05.48,1.99.97,2.73-.63-.71-1.1-1.74-1.25-2.92-.14-1.14.05-2.26.58-3.14.33-.55.77-.95,1.28-1.19-1.19.91-1.8,2.64-1.58,4.51h0ZM49.59,7.82c.89,1.4,1.14,3.11.66,4.76-.48,1.66-1.57,2.97-2.86,3.8,1.41-.71,2.64-2.01,3.14-3.72.51-1.71.14-3.49-.94-4.84ZM19.48,15.24c-.23-1.04-.46-2.09-.69-3.13-.09.02-.19.04-.28.06.23,1.04.47,2.08.7,3.13.09-.02.18-.04.27-.06ZM20.93,11.09c.06-.01.13-.02.19-.03.05-.01.09-.07.08-.12-.03-.18-.06-.36-.1-.54-.02-.12-.14-.2-.26-.18-.03,0-.07.01-.1.02.03.06.06.13.07.2.04.19.07.39.11.58v.08h.01ZM18.36,10.12c-.17-.76-.33-1.52-.5-2.27-.1.02-.2.04-.3.07.17.76.34,1.51.51,2.27.1-.02.19-.04.29-.06h0ZM23.25,14.24s-.06,0-.09.01c.02.05.05.11.06.17.07.46.14.92.21,1.37v.18s.06,0,.09-.01c.11-.02.18-.12.17-.24-.07-.44-.13-.87-.2-1.31-.02-.12-.13-.2-.24-.18h0ZM20.95,5.98c.07.44.15.88.22,1.32v.2s.07-.01.1-.02c.12-.02.21-.13.2-.25-.07-.44-.14-.87-.21-1.31-.03-.12-.14-.19-.27-.17-.04,0-.07.01-.11.02.03.05.05.11.06.17v.03h.01ZM4.88,14.85c.7,1.52,1.41,3.03,2.11,4.55.01.02.07.04.09.03h0c.07-.03.14-.05.22-.06-.02-.03-.04-.06-.05-.09-.66-1.43-1.31-2.86-1.97-4.29-.14-.05-.27-.1-.39-.14h0ZM8.07,19.61s-.06.02-.1.03c.05.06.1.12.13.2.06.13.12.26.18.39.03.07.05.14.06.22.03-.01.06-.03.1-.04h0c.1-.05.14-.17.09-.28-.06-.13-.12-.26-.17-.39-.05-.11-.18-.17-.28-.12h-.01ZM13.06,7.57s-.08.02-.12.03c.04.06.08.13.1.2.04.14.08.27.12.41.02.08.03.16.02.24.03-.02.07-.03.11-.04.13-.04.2-.16.17-.28-.04-.14-.08-.27-.12-.41-.03-.11-.15-.18-.28-.15ZM12.57,9.23s-.05.06-.05.09c.86,2.79,1.71,5.57,2.57,8.36.02.07.03.15.03.22.04-.01.08-.02.12-.04.09-.05.13-.16.1-.26-.84-2.79-1.69-5.58-2.53-8.37-.01-.03-.02-.07-.02-.11-.07.05-.14.08-.23.11h.01ZM3.51,11.22s.12.04.2.06c.07.02.16.05.26.08.03,0,.06.02.08.03.02,0,.04.01.06.02.25.08.56.19.9.31.54.19,1.18.42,1.84.67.08.03.16.06.24.09.16.06.32.13.48.19.44.18.88.36,1.31.54.36.15.7.31,1.03.45.11.05.23.1.34.15.05.02.11.05.16.07.84.39,1.48.71,1.71.82h0c-.04-.13-.09-.26-.13-.39-2.75-1.45-7.55-3.17-7.62-3.15-.31-.11-.51-.19-.88-.02-.02.01-.05.02-.07.03.02,0,.07.02.12.04h-.03ZM37.82,5.78c0-.19-.12-.39-.45-.59.13.21.16.4.14.56-.02.22-.12.44-.28.63.35-.12.57-.4.59-.61h0ZM37.35,10.58s-2.47-2.8-2.86-3.15c-.72-.74-.98-1.04-.76-1.4-.07,0-.15.03-.25.12-.12.11-.35.33.54,1.22.39.4.78.8,1.16,1.21,1.25,1.35,1.6,1.78,1.72,1.93h0c.74.86,1.17,2.27,1.08,3.33-.1,1.1-.61,2.07-1.33,2.8.86-.65,1.49-1.63,1.6-2.78,0-.05.03-.3.03-.36.09-.94-.31-2.18-.93-2.91h0ZM34.42,13.6c.02-.55-.23-1.12-.76-1.48.34.43.5.96.48,1.47,0,.51-.19.97-.48,1.33.45-.3.73-.76.75-1.32h0ZM31.44,13.81c.01-.11.03-.22.06-.32-.02,0-.05-.01-.08-.01-.17,0-.23.2-.25.37h.05c.07,0,.15-.01.22-.03h0ZM26.99,14.08c.09,0,.18-.02.27-.02-.24-2.71-.47-5.42-.71-8.13-.03-.35-.3-.64-.64-.74.19.21.31.48.34.77.25,2.71.5,5.42.74,8.13h0ZM52.89,12c-.52,1.59-1.04,3.17-1.56,4.76,0,.02.02.07.04.08h0c.07.02.14.06.2.11,0-.04,0-.07.02-.1.5-1.49.99-2.99,1.49-4.48-.07-.13-.13-.25-.19-.37ZM51.96,17.66s-.06-.03-.09-.04c0,.08,0,.16-.04.23-.05.14-.09.27-.14.41-.03.07-.06.14-.1.2.03.01.07.02.1.03h0c.11.03.22-.03.26-.15.05-.13.09-.27.14-.4.04-.12-.02-.24-.13-.28ZM63.87,12.27s-.07-.04-.11-.06c0,.07-.03.15-.06.21-.06.13-.13.26-.19.38-.04.07-.09.14-.14.19.04.01.07.02.11.04.12.06.26.02.32-.09.06-.13.13-.25.19-.38.05-.11,0-.24-.11-.3h0ZM62.36,13.15s-.08.01-.09.03c-1.28,2.62-2.55,5.24-3.83,7.86-.03.07-.08.13-.12.18l.12.06c.1.03.21-.02.25-.12,1.29-2.62,2.58-5.23,3.86-7.85.02-.03.04-.06.06-.09-.08-.01-.17-.04-.24-.08h-.01ZM54.36,8.41s.06.11.1.18c.04.07.08.15.13.24,0,.02.03.05.04.08,0,.02.02.03.03.05.13.23.28.51.44.84.27.51.57,1.11.88,1.74.04.08.07.15.11.23.07.15.15.31.22.47.2.43.4.86.59,1.29.16.36.31.7.45,1.03.05.12.1.23.14.34.02.05.04.11.07.16.35.86.61,1.53.7,1.77h0c.06-.13.11-.25.17-.38-1.05-2.94-3.37-7.47-3.43-7.5-.15-.29-.24-.49-.62-.61-.02,0-.05-.02-.07-.02,0,.02.03.06.06.11h0v-.02Z"/>
    <path class="st0" d="M38.24,25.65c-1.02,0-1.86-.83-1.86-1.85s.83-1.85,1.86-1.85c.59,0,.81.1.99.17.17.07.25.16.25.25,0,.11-.13.27-.34.27-.11,0-.26-.11-.33-.15l-.03-.02c-.08-.06-.41-.16-.71-.16-.1,0-.19.01-.26.03-.46.12-.87.66-.79,1.45.08.73.46,1.1.68,1.26.21.15.43.23.65.23.19,0,.68-.08.68-.29v-.71c0-.09-.08-.17-.17-.17-.06,0-.11-.05-.11-.11v-.14c0-.06.04-.1.1-.11h.49c.17,0,.32.15.32.31v1.08c0,.31-.73.5-1.43.5h0Z"/>
    <path class="st0" d="M17.24,25.65c-1.02,0-1.86-.83-1.86-1.85s.83-1.85,1.86-1.85,1.85.83,1.85,1.85-.83,1.85-1.85,1.85ZM17.05,22.31c-.08,0-.16.01-.23.03-.3.08-.54.3-.67.63-.14.33-.16.73-.05,1.12.1.39.32.72.61.94.21.16.44.24.67.24.08,0,.16-.01.23-.03.3-.08.53-.3.67-.63s.16-.73.05-1.12c-.1-.39-.32-.72-.61-.94-.21-.16-.44-.24-.67-.24Z"/>
    <path class="st0" d="M31.84,25.5c-.06,0-.1-.05-.1-.11v-.14c0-.06.05-.11.11-.11.09,0,.17-.08.17-.17v-2.39c0-.1-.08-.17-.17-.17-.06,0-.11-.05-.11-.1v-.14c0-.06.05-.11.11-.11h.36c.13,0,.18.05.26.13,0,.01,2.36,2.36,2.36,2.36v-1.97c0-.09-.08-.17-.17-.17-.06,0-.11-.05-.11-.11v-.14c0-.06.04-.1.1-.11h.71s.1.05.1.11v.14c0,.06-.05.11-.11.11-.09,0-.17.08-.17.17v2.8s-.04.09-.09.1h-.08c-.14,0-.2-.06-.28-.15-.09-.09-2.35-2.35-2.35-2.35v1.97c0,.09.08.17.17.17.06,0,.11.05.11.11v.14c0,.06-.04.1-.1.11h-.71v.02Z"/>
    <path class="st0" d="M40.72,25.5c-.06,0-.1-.05-.1-.11v-.14c0-.06.05-.11.11-.11.09,0,.17-.08.17-.17v-2.38c0-.09-.08-.17-.17-.17-.06,0-.11-.05-.11-.11v-.14c0-.06.04-.1.1-.11h1.82c.06,0,.1.04.11.1v.43c0,.06-.05.1-.11.1h-.14c-.06,0-.11-.05-.11-.11,0-.09-.09-.17-.18-.17h-.6v1.06h.73c.06,0,.1.04.11.1v.18s-.03.07-.07.07h-.78v1.34h.88c.09,0,.17-.09.17-.18,0-.06.05-.11.11-.11h.14c.06,0,.1.04.11.1v.43c0,.06-.05.1-.11.1h-2.1.02Z"/>
    <path class="st0" d="M50.32,25.5c-.06,0-.1-.05-.1-.11v-.14c0-.06.05-.11.11-.11.09,0,.17-.08.17-.17v-2.38c0-.09-.08-.17-.17-.17-.06,0-.11-.05-.11-.11v-.14c0-.06.04-.1.1-.11h1.82c.06,0,.1.04.11.1v.43c0,.06-.05.1-.11.1h-.14c-.06,0-.11-.05-.11-.11,0-.09-.09-.17-.18-.17h-.6v1.06h.73c.06,0,.1.04.11.1v.18s-.03.07-.07.07h-.78v1.34h.88c.09,0,.17-.09.17-.18,0-.06.05-.11.11-.11h.14c.06,0,.1.04.11.1v.43c0,.06-.05.1-.11.1h-2.1.02Z"/>
    <path class="st0" d="M48.19,25.5c-.06,0-.1-.05-.1-.11v-.14c0-.06.05-.11.11-.11.09,0,.17-.08.17-.17v-2.38c0-.09-.08-.17-.17-.17-.06,0-.11-.05-.11-.11v-.14c0-.06.04-.1.1-.11h.99c.06,0,.1.05.1.11v.14c0,.06-.05.11-.11.11-.09,0-.17.08-.17.17v2.38c0,.09.08.17.17.17.06,0,.11.05.11.11v.14c0,.06-.04.1-.1.11,0,0-.99,0-.99,0Z"/>
    <path class="st0" d="M21.61,25.64c-.71,0-1.29-.58-1.29-1.29v-1.75c0-.09-.08-.17-.17-.17-.06,0-.11-.05-.11-.11v-.14c0-.06.04-.1.1-.11h.99c.06,0,.1.05.1.11v.14c0,.06-.05.11-.11.11-.09,0-.17.08-.17.17v1.75c0,.44.36.81.81.81s.81-.36.81-.81v-1.75c0-.09-.08-.17-.17-.17-.06,0-.11-.05-.11-.11v-.14c0-.06.04-.1.1-.11h.71s.1.05.1.11v.14c0,.06-.05.11-.11.11-.09,0-.17.08-.17.17v1.75c0,.71-.58,1.29-1.29,1.29h-.02Z"/>
    <path class="st0" d="M24.22,25.5c-.06,0-.1-.05-.1-.11v-.14c0-.06.05-.11.11-.11.09,0,.17-.08.17-.17v-2.38c0-.09-.08-.17-.17-.17-.06,0-.11-.05-.11-.11v-.14c0-.06.04-.1.1-.11h.99c.06,0,.1.05.1.11v.14c0,.06-.05.11-.11.11-.09,0-.17.08-.17.17v2.56h.88c.09,0,.17-.08.17-.17,0-.06.05-.11.11-.11h.14c.06,0,.1.04.11.1v.43c0,.06-.05.1-.11.1h-2.11Z"/>
    <path class="st0" d="M27.47,25.5c-.06,0-.1-.05-.1-.11v-.14c0-.06.05-.11.11-.11.1,0,.19-.06.23-.16l1-2.42s.02-.08.02-.11c0-.05-.01-.11-.04-.16,0-.02-.01-.04-.01-.07,0-.1.08-.17.17-.17h.26c.1,0,.19.06.23.15l1.15,2.78c.04.09.12.15.21.16.06,0,.11.05.11.11v.14c0,.06-.04.1-.1.11h-.99c-.06,0-.1-.05-.1-.11v-.14c0-.06.05-.11.11-.11s.1-.06.09-.12v-.03l-.27-.62h-1.2l-.26.62s0,.08,0,.1c.02.03.06.05.09.05.06,0,.11.05.11.11v.14c0,.06-.04.1-.1.11h-.72ZM28.48,24.03h.91l-.46-1.1-.46,1.1h0Z"/>
    <path class="st0" d="M43.97,25.5c-.06,0-.1-.05-.1-.11v-.14c0-.06.05-.11.11-.11.08,0,.16-.07.17-.15v-2.44c0-.08-.09-.14-.17-.14-.06,0-.11-.05-.11-.11v-.14c0-.06.04-.1.1-.11h1.55c.53.04.94.48.94,1.01,0,.39-.23.75-.58.92l-.05.02,1.05,1.05s.09.07.14.07v.04h.08v-.03s.07.05.07.1v.14c0,.06-.04.1-.1.11h-.23c-.28,0-.54-.11-.73-.31l-1.06-1.06s-.05-.03-.08-.03h-.19v.88c0,.09.08.17.17.17.06,0,.11.05.11.11v.14c0,.06-.04.1-.1.11h-.99,0ZM44.77,22.42v1.33h.39c.36,0,.66-.3.66-.67s-.3-.66-.66-.67h-.39Z"/>
    <path class="st0" d="M54.42,25.96c-.41,0-.73-.31-.73-.72s.33-.71.73-.71.72.31.72.71-.32.72-.72.72ZM54.42,24.67c-.32,0-.59.25-.59.57s.26.58.59.58c.13,0,.25-.04.35-.11l.07-.05-.09-.02s-.09-.03-.12-.06l-.26-.26h-.05v.25h.03s.03.01.03.03v.03l-.25.02-.02-.05h.04l.02-.06v-.61h-.03s-.03,0-.03-.02v-.03l.39-.02c.09,0,.21.12.21.23,0,.08-.04.15-.11.2l-.04.03.25.25.04.03h.04l.03-.02c.06-.09.1-.21.1-.32,0-.32-.26-.57-.58-.57l-.02-.02ZM54.31,25.24h.1c.09,0,.16-.07.16-.16s-.07-.16-.16-.16h-.1v.32Z"/>
  </g>
</svg>